HIERARCHY
ROOT Hips
{
	OFFSET 0.000000 0.000000 0.000000
	CHANNELS 6 Xposition Yposition Zposition Zrotation Yrotation Xrotation 
	JOINT LHipJoint
	{
		OFFSET 0.000000 0.000000 0.000000
		CHANNELS 3 Zrotation Yrotation Xrotation
		JOINT LeftUpLeg
		{
			OFFSET 8.178360 -10.767780 5.035740
			CHANNELS 3 Zrotation Yrotation Xrotation
			JOINT LeftLeg
			{
				OFFSET 14.688660 -40.356780 0.000000
				CHANNELS 3 Zrotation Yrotation Xrotation
				JOINT LeftFoot
				{
					OFFSET 15.373200 -42.237540 0.000000
					CHANNELS 3 Zrotation Yrotation Xrotation
					JOINT LeftToeBase
					{
						OFFSET 0.945840 -2.598660 13.935300
						CHANNELS 3 Zrotation Yrotation Xrotation
						End Site
						{
							OFFSET 0.000000 0.000000 0.000000
						}
					}
				}
			}
		}
	}
	JOINT RHipJoint
	{
		OFFSET 0.000000 0.000000 0.000000
		CHANNELS 3 Zrotation Yrotation Xrotation
		JOINT RightUpLeg
		{
			OFFSET -7.833120 -10.767780 5.035740
			CHANNELS 3 Zrotation Yrotation Xrotation
			JOINT RightLeg
			{
				OFFSET -15.255180 -41.913300 0.000000
				CHANNELS 3 Zrotation Yrotation Xrotation
				JOINT RightFoot
				{
					OFFSET -15.409560 -42.337380 0.000000
					CHANNELS 3 Zrotation Yrotation Xrotation
					JOINT RightToeBase
					{
						OFFSET -0.988380 -2.715540 14.178900
						CHANNELS 3 Zrotation Yrotation Xrotation
						End Site
						{
							OFFSET 0.000000 0.000000 0.000000
						}
					}
				}
			}
		}
	}
	JOINT LowerBack
	{
		OFFSET 0.000000 0.000000 0.000000
		CHANNELS 3 Zrotation Yrotation Xrotation
		JOINT Spine
		{
			OFFSET 0.169620 12.213540 -1.160280
			CHANNELS 3 Zrotation Yrotation Xrotation
			JOINT Spine1
			{
				OFFSET 0.340320 12.293100 -0.256500
				CHANNELS 3 Zrotation Yrotation Xrotation
				JOINT Neck
				{
					OFFSET 0.000000 0.000000 0.000000
					CHANNELS 3 Zrotation Yrotation Xrotation
					JOINT Neck1
					{
						OFFSET -0.325020 10.477440 1.032120
						CHANNELS 3 Zrotation Yrotation Xrotation
						JOINT Head
						{
							OFFSET 0.624420 10.568160 -0.743820
							CHANNELS 3 Zrotation Yrotation Xrotation
							End Site
							{
								OFFSET 0.000000 0.000000 0.000000
							}
						}
					}
				}
				JOINT LeftShoulder
				{
					OFFSET 0.000000 0.000000 0.000000
					CHANNELS 3 Zrotation Yrotation Xrotation
					JOINT LeftArm
					{
						OFFSET 20.174460 7.205340 -1.867260
						CHANNELS 3 Zrotation Yrotation Xrotation
						JOINT LeftForeArm
						{
							OFFSET 29.898000 -0.000000 -0.000000
							CHANNELS 3 Zrotation Yrotation Xrotation
							JOINT LeftHand
							{
								OFFSET 20.901360 -0.000000 -0.000000
								CHANNELS 3 Zrotation Yrotation Xrotation
								JOINT LeftFingerBase
								{
									OFFSET 0.000000 0.000000 0.000000
									CHANNELS 3 Zrotation Yrotation Xrotation
									JOINT LeftHandIndex1
									{
										OFFSET 4.291560 -0.000000 -0.000000
										CHANNELS 3 Zrotation Yrotation Xrotation
										End Site
										{
											OFFSET 0.000000 0.000000 0.000000
										}
									}
								}
								JOINT LThumb
								{
									OFFSET 0.000000 0.000000 0.000000
									CHANNELS 3 Zrotation Yrotation Xrotation
									End Site
									{
										OFFSET 0.000000 0.000000 0.000000
									}
								}
							}
						}
					}
				}
				JOINT RightShoulder
				{
					OFFSET 0.000000 0.000000 0.000000
					CHANNELS 3 Zrotation Yrotation Xrotation
					JOINT RightArm
					{
						OFFSET -18.819600 8.244300 -2.427900
						CHANNELS 3 Zrotation Yrotation Xrotation
						JOINT RightForeArm
						{
							OFFSET -31.451400 -0.000000 -0.000000
							CHANNELS 3 Zrotation Yrotation Xrotation
							JOINT RightHand
							{
								OFFSET -20.665020 -0.000000 -0.000000
								CHANNELS 3 Zrotation Yrotation Xrotation
								JOINT RightFingerBase
								{
									OFFSET 0.000000 0.000000 0.000000
									CHANNELS 3 Zrotation Yrotation Xrotation
									JOINT RightHandIndex1
									{
										OFFSET -3.735180 -0.000000 -0.000000
										CHANNELS 3 Zrotation Yrotation Xrotation
										End Site
										{
											OFFSET 0.000000 0.000000 0.000000
										}
									}
								}
								JOINT RThumb
								{
									OFFSET 0.000000 0.000000 0.000000
									CHANNELS 3 Zrotation Yrotation Xrotation
									End Site
									{
										OFFSET 0.000000 0.000000 0.000000
									}
								}
							}
						}
					}
				}
			}
		}
	}
}
MOTION
Frames:	5
Frame Time:	0.0333333
-55.445742 107.708772 76.089858 0.616950 74.444602 4.496331 -3.250518 0.604542 1.311485 -18.064264 -2.522575 -21.465703 -0.777038 6.108204 17.487807 -0.268444 2.454534 4.089259 0.109500 2.133800 5.875500 0.394114 -1.625385 1.118962 13.497752 -16.006891 1.190194 -1.871105 -8.342008 25.394167 5.185948 -24.250621 -6.355056 -0.453800 4.321500 -11.983000 5.229324 6.277523 9.781101 0.411912 9.035975 1.561584 -6.256335 4.594383 -4.148269 -11.343677 -5.372582 -16.470631 5.340391 -4.917864 19.586177 3.978500 -2.759000 13.734300 -6.502760 -0.280709 -1.696237 -81.914205 10.360062 5.031818 13.202380 -19.154183 -2.450101 -1.497601 -2.134462 12.164913 18.788086 23.152425 8.828100 -7.125000 0.000000 0.000000 -10.870300 56.564600 -3.107400 5.048627 1.203546 -1.003808 79.775504 2.797883 19.020072 -18.873583 27.544692 -4.892466 0.463786 -0.128636 3.320037 -18.819972 8.511281 -2.994200 7.125000 0.000000 0.000000 5.475400 -20.900500 3.176100 
-51.904266 107.918754 75.936270 1.953154 76.305133 5.507408 -3.364919 0.717344 1.597834 -19.238821 -1.323364 -19.638597 -0.762922 5.896066 17.167998 0.150523 -0.808586 5.023861 0.548800 4.746000 13.185600 0.236068 -1.684198 0.971379 12.108765 -15.970712 0.028669 -3.008056 -10.107231 30.751159 5.423175 -26.005239 -1.247766 -0.005100 0.462600 -1.271000 5.097359 5.755351 9.528128 0.450634 8.327306 1.426719 -6.128847 4.218973 -4.375127 -11.202271 -5.281418 -16.170713 5.230410 -4.845547 19.853846 3.917300 -2.729100 13.766800 -6.587472 -0.265371 -1.671936 -82.517259 10.573847 2.438063 12.246466 -17.694823 -2.041702 -1.569382 -2.098276 14.470057 18.051309 23.475362 8.573900 -7.125000 0.000000 0.000000 -11.835100 56.749500 -3.441500 5.072511 1.150470 -1.051219 80.609822 1.427146 18.918865 -19.061546 27.753308 -4.980968 0.475663 -0.117039 1.716764 -18.979780 8.740755 -3.102300 7.125000 0.000000 0.000000 5.354400 -20.649000 3.135700 
-48.440778 108.194730 75.811482 4.671280 78.134405 7.992095 -3.511047 0.833182 1.864547 -20.216613 -1.199774 -17.053947 -0.828681 5.451232 16.204791 0.316525 -2.498868 5.714255 1.360800 7.383700 20.857300 0.034277 -1.725947 0.821365 11.293897 -13.880197 -2.514115 -4.849122 -12.403755 38.243219 5.038439 -27.843354 7.469061 -0.095900 -1.997300 5.498100 4.496504 5.302931 9.176713 0.455907 7.655951 1.322280 -5.757720 3.856707 -4.518020 -11.096727 -5.377472 -16.273576 5.327422 -5.011227 20.379011 3.912400 -2.768800 14.052800 -6.624295 -0.268211 -1.670086 -82.973719 10.703074 2.556130 11.941247 -17.185756 -1.918033 -1.578954 -2.093856 15.044522 17.694515 23.527860 8.415200 -7.125000 0.000000 0.000000 -12.255200 56.732200 -3.561100 5.090312 1.113920 -1.087643 81.349773 0.171605 18.299214 -18.890662 27.517979 -4.893371 0.462804 -0.113290 1.623075 -18.481106 8.684861 -2.995100 7.125000 0.000000 0.000000 5.722700 -20.740100 3.341700 
-45.213672 108.000948 75.930870 10.608280 80.005042 13.327135 -3.617332 0.839394 2.059589 -22.047964 -0.330171 -14.713680 -0.825356 5.121902 15.614291 0.455122 -4.468813 4.865435 0.397400 4.047400 11.209900 -0.176652 -1.747934 0.762785 10.313015 -11.615257 -5.381727 -6.895113 -14.563161 46.764322 3.515179 -22.980057 10.356412 -0.624300 -5.056000 14.068300 2.999378 4.674521 9.141104 0.420348 6.662981 1.401704 -4.917000 3.343236 -4.610382 -10.748839 -5.402597 -16.309840 5.447894 -5.174764 20.132881 3.842100 -2.771500 13.951300 -6.666062 -0.328798 -1.641297 -82.865999 10.176604 5.458470 11.618795 -16.617101 -1.805950 -1.595859 -2.094704 14.313446 17.889308 23.402670 8.488600 -7.125000 0.000000 0.000000 -11.932000 56.644800 -3.439900 5.133693 1.098915 -1.108198 82.306595 -0.673783 17.677784 -18.521400 27.015455 -4.704984 0.449951 -0.117543 2.529570 -18.113031 8.519775 -2.875600 7.125000 0.000000 0.000000 5.996500 -20.936600 3.476600 
-42.067560 107.881554 76.098858 18.412722 82.547977 20.518608 -3.623141 0.839242 2.142217 -22.850417 -1.806476 -11.963860 -0.692302 5.307836 16.420204 0.479645 -5.179093 3.361382 0.572000 4.843700 13.463300 -0.307319 -1.782411 0.784115 10.166469 -9.875895 -8.653621 -8.541953 -16.023244 53.560242 1.713667 -14.936056 12.098752 -0.393200 -4.026400 11.151100 2.005163 3.809746 9.172685 0.455702 5.429818 1.508660 -4.107635 2.700095 -4.578177 -10.494096 -5.394498 -16.375230 5.313079 -5.232431 20.132820 3.715300 -2.779800 13.945900 -6.696378 -0.460036 -1.591615 -82.121258 9.038762 11.920157 11.391445 -16.171775 -1.754626 -1.508692 -2.123329 11.896409 17.558990 22.895079 8.174200 -7.125000 0.000000 0.000000 -11.995400 56.034100 -3.280300 5.177256 1.082279 -1.133060 83.410389 -1.536622 15.992488 -18.087251 26.439622 -4.488175 0.432080 -0.141665 3.602168 -17.677311 8.887413 -2.925300 7.125000 0.000000 0.000000 6.318200 -20.560300 3.719200 
